<svg width="126" height="106" viewBox="0 0 126 106" fill="none" xmlns="http://www.w3.org/2000/svg">
<path d="M20.5067 36.7159H18.6416V35.9697H23.1598V36.7159H21.2947V41.8286H20.5067V36.7159Z" fill="white"/>
<path d="M26.2717 35.9697H30.0119V36.7159H27.0596V38.4605H29.8124V39.2067H27.0596V41.0824H30.1615V41.8286H26.2717V35.9697Z" fill="white"/>
<path d="M37.592 37.2403C37.4324 37.0286 37.223 36.8571 36.9736 36.7462C36.7243 36.6252 36.465 36.5748 36.1957 36.5748C35.8665 36.5748 35.5773 36.6353 35.308 36.7664C35.0387 36.8874 34.8193 37.0588 34.6298 37.2706C34.4403 37.4823 34.2907 37.7344 34.1909 38.0269C34.0912 38.3193 34.0313 38.6218 34.0313 38.9546C34.0313 39.2672 34.0812 39.5596 34.1809 39.8319C34.2807 40.1042 34.4203 40.3462 34.6098 40.558C34.7993 40.7697 35.0188 40.9311 35.2881 41.0521C35.5574 41.1731 35.8566 41.2336 36.1957 41.2336C36.5348 41.2336 36.824 41.1631 37.0734 41.0219C37.3227 40.8807 37.5421 40.6891 37.7117 40.4471L38.38 40.9513C38.3401 41.0118 38.2603 41.1025 38.1506 41.2134C38.0408 41.3243 37.9012 41.4353 37.7117 41.5563C37.5322 41.6672 37.3128 41.7681 37.0634 41.8588C36.8141 41.9496 36.5148 41.9899 36.1857 41.9899C35.7269 41.9899 35.318 41.8991 34.9489 41.7277C34.5799 41.5563 34.2707 41.3243 34.0114 41.0319C33.7521 40.7495 33.5526 40.4168 33.413 40.0639C33.2733 39.7109 33.2035 39.3378 33.2035 38.9647C33.2035 38.5109 33.2733 38.0975 33.4229 37.7143C33.5726 37.3311 33.772 36.9983 34.0413 36.7159C34.3106 36.4336 34.6198 36.2218 34.9988 36.0706C35.3678 35.9193 35.7768 35.8386 36.2256 35.8386C36.6046 35.8386 36.9836 35.9092 37.3527 36.0605C37.7217 36.2117 38.0209 36.4436 38.2603 36.7462L37.602 37.2504L37.592 37.2403Z" fill="white"/>
<path d="M41.6015 35.9697H42.3895V38.4H45.3916V35.9697H46.1795V41.8286H45.3916V39.1462H42.3895V41.8286H41.6015V35.9697Z" fill="white"/>
<path d="M49.9497 35.9697H50.977L54.1686 40.7899H54.1886V35.9697H54.9765V41.8286H53.9791L50.7575 37.0084H50.7376V41.8286H49.9497V35.9697Z" fill="white"/>
<path d="M61.4097 41.9798C60.9708 41.9798 60.5619 41.8992 60.1929 41.7479C59.8238 41.5866 59.5046 41.3748 59.2353 41.1025C58.976 40.8302 58.7666 40.4975 58.617 40.1244C58.4674 39.7513 58.3876 39.3479 58.3876 38.9042C58.3876 38.4605 58.4674 38.0672 58.617 37.684C58.7666 37.3008 58.976 36.9882 59.2353 36.7059C59.5046 36.4336 59.8139 36.2117 60.1929 36.0605C60.5619 35.8991 60.9708 35.8285 61.4097 35.8285C61.8485 35.8285 62.2575 35.9092 62.6265 36.0605C62.9955 36.2218 63.3147 36.4336 63.584 36.7059C63.8533 36.9781 64.0527 37.3109 64.2024 37.684C64.352 38.0571 64.4318 38.4605 64.4318 38.9042C64.4318 39.3479 64.352 39.7412 64.2024 40.1244C64.0527 40.4975 63.8433 40.8201 63.584 41.1025C63.3247 41.3849 63.0055 41.5966 62.6265 41.7479C62.2575 41.9092 61.8485 41.9798 61.4097 41.9798ZM61.4097 41.2336C61.7388 41.2336 62.038 41.1731 62.3073 41.0521C62.5766 40.9311 62.806 40.7597 62.9955 40.5479C63.185 40.3361 63.3346 40.0941 63.4344 39.8118C63.5341 39.5294 63.594 39.2269 63.594 38.9042C63.594 38.5815 63.5441 38.279 63.4344 37.9966C63.3346 37.7143 63.185 37.4621 62.9955 37.2605C62.806 37.0588 62.5766 36.8874 62.3073 36.7563C62.038 36.6353 61.7388 36.5647 61.4097 36.5647C61.0805 36.5647 60.7813 36.6252 60.512 36.7563C60.2427 36.8773 60.0133 37.0487 59.8238 37.2605C59.6343 37.4722 59.4847 37.7143 59.385 37.9966C59.2852 38.279 59.2254 38.5815 59.2254 38.9042C59.2254 39.2269 59.2753 39.5294 59.385 39.8118C59.4847 40.0941 59.6343 40.3462 59.8238 40.5479C60.0133 40.7597 60.2427 40.921 60.512 41.0521C60.7813 41.1731 61.0805 41.2336 61.4097 41.2336Z" fill="white"/>
<path d="M67.8428 35.9697H68.6308V41.0824H71.2938V41.8286H67.8428V35.9697Z" fill="white"/>
<path d="M77.0188 41.9798C76.58 41.9798 76.171 41.8992 75.802 41.7479C75.433 41.5866 75.1138 41.3748 74.8445 41.1025C74.5752 40.8302 74.3757 40.4975 74.2261 40.1244C74.0765 39.7513 73.9967 39.3479 73.9967 38.9042C73.9967 38.4605 74.0765 38.0672 74.2261 37.684C74.3757 37.3008 74.5852 36.9882 74.8445 36.7059C75.1038 36.4336 75.423 36.2117 75.802 36.0605C76.171 35.8991 76.58 35.8285 77.0188 35.8285C77.4577 35.8285 77.8666 35.9092 78.2356 36.0605C78.6047 36.2218 78.9238 36.4336 79.1931 36.7059C79.4624 36.9781 79.6619 37.3109 79.8115 37.684C79.9611 38.0571 80.0409 38.4605 80.0409 38.9042C80.0409 39.3479 79.9611 39.7412 79.8115 40.1244C79.6619 40.4975 79.4524 40.8201 79.1931 41.1025C78.9338 41.3849 78.6146 41.5966 78.2356 41.7479C77.8666 41.9092 77.4577 41.9798 77.0188 41.9798ZM77.0188 41.2336C77.348 41.2336 77.6472 41.1731 77.9165 41.0521C78.1858 40.9311 78.4152 40.7597 78.6047 40.5479C78.7942 40.3361 78.9438 40.0941 79.0435 39.8118C79.1432 39.5294 79.2031 39.2269 79.2031 38.9042C79.2031 38.5815 79.1532 38.279 79.0435 37.9966C78.9438 37.7143 78.7942 37.4621 78.6047 37.2605C78.4152 37.0588 78.1858 36.8874 77.9165 36.7563C77.6472 36.6353 77.348 36.5647 77.0188 36.5647C76.6897 36.5647 76.3905 36.6252 76.1212 36.7563C75.8519 36.8773 75.6225 37.0487 75.433 37.2605C75.2435 37.4722 75.0938 37.7143 74.9941 37.9966C74.8944 38.279 74.8345 38.5815 74.8345 38.9042C74.8345 39.2269 74.8844 39.5294 74.9941 39.8118C75.0938 40.0941 75.2435 40.3462 75.433 40.5479C75.6225 40.7597 75.8519 40.921 76.1212 41.0521C76.3905 41.1731 76.6897 41.2336 77.0188 41.2336Z" fill="white"/>
<path d="M88.389 41.4353C88.2494 41.5261 88.0898 41.5966 87.9103 41.6672C87.7308 41.7378 87.5413 41.7883 87.3517 41.8387C87.1622 41.8891 86.9628 41.9193 86.7633 41.9395C86.5638 41.9597 86.3743 41.9697 86.2048 41.9697C85.716 41.9697 85.2772 41.889 84.8882 41.7176C84.4992 41.5462 84.1801 41.3244 83.9108 41.042C83.6415 40.7596 83.442 40.437 83.3024 40.0639C83.1627 39.6908 83.0929 39.2974 83.0929 38.884C83.0929 38.4504 83.1727 38.0471 83.3223 37.6639C83.4719 37.2807 83.6814 36.968 83.9407 36.6857C84.2 36.4134 84.5192 36.1916 84.8982 36.0403C85.2672 35.879 85.6761 35.8084 86.115 35.8084C86.6536 35.8084 87.0825 35.879 87.4216 36.01C87.7607 36.1411 88.04 36.3327 88.2694 36.5647L87.7108 37.1697C87.4715 36.9378 87.2121 36.7764 86.9528 36.6857C86.6835 36.5949 86.4042 36.5445 86.115 36.5445C85.7859 36.5445 85.4866 36.605 85.2174 36.7361C84.9481 36.8571 84.7187 37.0286 84.5292 37.2403C84.3396 37.4521 84.19 37.6941 84.0903 37.9765C83.9906 38.2588 83.9307 38.5613 83.9307 38.884C83.9307 39.2067 83.9906 39.5193 84.1003 39.8118C84.21 40.0941 84.3696 40.3462 84.579 40.5479C84.7885 40.7496 85.0179 40.921 85.2872 41.042C85.5565 41.163 85.8557 41.2235 86.1748 41.2235C86.4541 41.2235 86.7134 41.1933 86.9628 41.1429C87.2121 41.0925 87.4216 41.0117 87.6011 40.9109V39.2773H86.3145V38.5311H88.389V41.4353Z" fill="white"/>
<path d="M92.1093 35.9697H92.8972V41.8286H92.1093V35.9697Z" fill="white"/>
<path d="M96.6574 35.9697H100.398V36.7159H97.4454V38.4605H100.198V39.2067H97.4454V41.0824H100.547V41.8286H96.6574V35.9697Z" fill="white"/>
<path d="M104.118 40.6084C104.257 40.8202 104.437 40.9815 104.666 41.0824C104.886 41.1832 105.115 41.2336 105.355 41.2336C105.484 41.2336 105.614 41.2134 105.754 41.1731C105.893 41.1328 106.013 41.0723 106.123 40.9916C106.232 40.9109 106.322 40.8101 106.392 40.6891C106.462 40.5681 106.502 40.4269 106.502 40.2656C106.502 40.0437 106.432 39.8723 106.292 39.7513C106.153 39.6303 105.973 39.5294 105.764 39.4588C105.554 39.3781 105.325 39.2975 105.075 39.2269C104.826 39.1563 104.597 39.0454 104.387 38.9143C104.178 38.7832 103.998 38.6016 103.859 38.3798C103.719 38.1579 103.649 37.8554 103.649 37.4723C103.649 37.3008 103.689 37.1193 103.759 36.9277C103.829 36.7361 103.948 36.5546 104.108 36.4033C104.267 36.2521 104.467 36.1109 104.716 36C104.966 35.889 105.265 35.8386 105.614 35.8386C105.933 35.8386 106.232 35.879 106.522 35.9697C106.811 36.0605 107.06 36.2319 107.28 36.5042L106.641 37.0891C106.542 36.9378 106.402 36.8067 106.222 36.7159C106.043 36.6252 105.833 36.5748 105.604 36.5748C105.375 36.5748 105.205 36.605 105.055 36.6655C104.906 36.726 104.796 36.7966 104.706 36.8874C104.617 36.9781 104.557 37.0789 104.527 37.1798C104.487 37.2806 104.477 37.3815 104.477 37.4723C104.477 37.7244 104.547 37.9059 104.686 38.0471C104.826 38.1781 105.006 38.2891 105.215 38.3698C105.424 38.4504 105.654 38.5311 105.903 38.5916C106.153 38.6622 106.382 38.7529 106.591 38.874C106.801 38.995 106.98 39.1563 107.12 39.358C107.26 39.5597 107.329 39.8319 107.329 40.195C107.329 40.4773 107.28 40.7294 107.17 40.9513C107.06 41.1731 106.921 41.3647 106.741 41.5261C106.561 41.6874 106.352 41.7983 106.103 41.879C105.853 41.9597 105.594 42 105.315 42C104.946 42 104.597 41.9294 104.258 41.7983C103.928 41.6672 103.659 41.4655 103.46 41.1832L104.108 40.6185L104.118 40.6084Z" fill="white"/>
<path d="M8.89671 13.2306V24.4743H5.55545V13.2306H0V9.86251H14.4522V13.2306H8.89671Z" fill="white"/>
<path d="M18.9006 21.1063H30.0115V24.4743H18.3421C16.4869 24.4743 15.5594 23.5365 15.5594 21.6609V12.676C15.5594 10.8003 16.4869 9.86251 18.3421 9.86251H30.0115V13.2306H18.9006V15.4794H30.0115V18.8474H18.9006V21.1063Z" fill="white"/>
<path d="M34.46 21.0957H45.5709V24.4638H33.9014C32.0463 24.4638 31.1187 23.526 31.1187 21.6503V12.6553C31.1187 10.7797 32.0463 9.84183 33.9014 9.84183H45.5709V13.2099H34.46V21.0957Z" fill="white"/>
<path d="M83.7609 18.8575V24.4743H80.4296V12.676C80.4296 10.8003 81.3572 9.86251 83.2123 9.86251H92.109C93.9642 9.86251 94.8917 10.8003 94.8917 12.676V16.0441C94.8917 17.9197 93.9642 18.8575 92.109 18.8575H83.7609ZM91.5405 13.2407H83.7609V15.4895H91.5405V13.2407Z" fill="white"/>
<path d="M100.766 18.8575H99.3202V24.4743H95.989V12.676C95.989 10.8003 96.9165 9.86251 98.7717 9.86251H107.658C109.514 9.86251 110.441 10.8003 110.441 12.676V16.0441C110.441 17.9197 109.514 18.8575 107.658 18.8575H105.654L111.209 24.4743H106.322L100.766 18.8575ZM107.1 13.2407H99.3202V15.4895H107.1V13.2407Z" fill="white"/>
<path d="M123.217 24.4743H114.331C112.475 24.4743 111.548 23.5365 111.548 21.6609V12.676C111.548 10.8003 112.475 9.86251 114.331 9.86251H123.217C125.072 9.86251 126 10.8003 126 12.676V21.6609C126 23.5365 125.072 24.4743 123.217 24.4743ZM122.659 13.2407H114.879V21.1063H122.659V13.2407Z" fill="white"/>
<path d="M68.3212 26.4198C68.0819 26.4198 67.8425 26.2887 67.7128 26.0568C67.5333 25.724 67.663 25.3005 67.9921 25.129C70.0467 24.0299 71.6525 22.3156 72.6399 20.1878C73.8368 17.5861 73.9665 14.6718 72.999 11.9794C72.0315 9.2869 70.0766 7.1289 67.5133 5.91881C65.1396 4.79947 62.4466 4.59781 59.9332 5.37429C59.5741 5.48521 59.1951 5.28352 59.0854 4.92049C58.9757 4.55747 59.1752 4.17429 59.5442 4.06337C62.3768 3.19614 65.4089 3.40789 68.1018 4.67848C71.0042 6.04992 73.1984 8.47013 74.2956 11.5155C75.3927 14.5508 75.2431 17.8483 73.8966 20.7727C72.7895 23.1828 70.9743 25.1088 68.6504 26.3492C68.5506 26.3996 68.4409 26.4299 68.3312 26.4299" fill="#009DB9"/>
<path d="M63.0251 27.7613C61.2796 27.7613 59.5541 27.3781 57.9583 26.6218C51.974 23.7983 49.3708 16.578 52.1735 10.5276C52.9115 8.91414 53.9688 7.52255 55.3053 6.38305C55.5945 6.14103 56.0234 6.1713 56.2628 6.46374C56.5022 6.75618 56.4722 7.18976 56.183 7.43178C54.9961 8.44018 54.0685 9.67046 53.4003 11.1024C50.9268 16.4671 53.2307 22.8605 58.5268 25.3714C60.1825 26.158 62.0177 26.4907 63.833 26.3495C64.212 26.3193 64.5411 26.6016 64.571 26.9848C64.6009 27.368 64.3217 27.7008 63.9427 27.731C63.6335 27.7512 63.3243 27.7714 63.0251 27.7714" fill="#009DB9"/>
<path d="M55.5147 19.1187C55.2355 19.1187 54.9761 18.9473 54.8764 18.6649C54.0785 16.4565 54.1782 14.0666 55.1656 11.9389C57.1903 7.55228 62.3668 5.64637 66.7054 7.69344C69.0792 8.81277 70.8147 10.9405 71.453 13.512C71.5428 13.8851 71.3233 14.2582 70.9543 14.349C70.5952 14.4397 70.2162 14.2179 70.1265 13.8448C69.5879 11.6767 68.1317 9.88168 66.1269 8.94386C62.4665 7.21948 58.1079 8.8229 56.4024 12.5238C55.5746 14.3187 55.4848 16.3355 56.163 18.2011C56.2927 18.554 56.1132 18.9574 55.7541 19.0885C55.6743 19.1188 55.5945 19.1288 55.5247 19.1288" fill="#009DB9"/>
<path d="M63.0149 24.423C61.7582 24.423 60.5115 24.1507 59.3445 23.5961C58.8159 23.344 58.3072 23.0415 57.8384 22.6885C57.5392 22.4566 57.4694 22.0331 57.6988 21.7205C57.9282 21.418 58.3471 21.3474 58.6563 21.5793C59.0453 21.8717 59.4742 22.1339 59.923 22.3457C61.6983 23.1827 63.6832 23.2734 65.5184 22.5978C67.3535 21.9222 68.8197 20.5608 69.6475 18.7759C69.8071 18.433 69.9368 18.0801 70.0465 17.7171C70.1562 17.354 70.5352 17.1423 70.8943 17.2532C71.2533 17.3642 71.4628 17.7473 71.3531 18.1104C71.2334 18.5339 71.0738 18.9574 70.8843 19.3608C69.9069 21.4885 68.1614 23.102 65.9871 23.8986C65.0197 24.2516 64.0123 24.4331 63.0149 24.4331" fill="#009DB9"/>
<path d="M63.0152 20.7528C62.2971 20.7528 61.569 20.6016 60.8808 20.2688C58.3574 19.0789 57.2603 16.0335 58.4372 13.4721C58.876 12.5343 59.5742 11.7477 60.4519 11.2234C60.781 11.0318 61.19 11.1427 61.3894 11.4654C61.5789 11.7881 61.4692 12.2116 61.1501 12.4133C60.5018 12.7965 59.9931 13.3612 59.6739 14.047C58.8162 15.9125 59.6141 18.1411 61.4593 19.0083C63.3044 19.8755 65.5087 19.0688 66.3664 17.2032C67.1743 15.4587 66.5061 13.341 64.8604 12.3831C64.5312 12.1915 64.4215 11.7679 64.611 11.4452C64.8005 11.1125 65.2194 11.0015 65.5386 11.1931C67.7927 12.5041 68.7003 15.3982 67.6032 17.7881C66.7454 19.6436 64.9202 20.7427 63.0152 20.7427" fill="#009DB9"/>
<path d="M63.005 31.462C58.1577 31.462 53.6694 29.2334 50.6972 25.351C50.4678 25.0485 50.5177 24.6149 50.8169 24.383C51.1161 24.151 51.545 24.2015 51.7744 24.504C54.4873 28.0435 58.5766 30.0804 63.005 30.0804C67.4334 30.0804 71.5626 28.0334 74.2755 24.4535C74.5049 24.151 74.9337 24.0905 75.2329 24.3224C75.5322 24.5543 75.592 24.988 75.3626 25.2905C72.3904 29.2031 67.8922 31.4519 63.0149 31.4519" fill="#009DB9"/>
<path d="M50.6675 8.01686C50.5378 8.01686 50.3982 7.97653 50.2885 7.89586C49.9793 7.68409 49.8895 7.25046 50.1089 6.93786C53.0113 2.59162 57.8288 0 63.0052 0C68.1816 0 72.9791 2.58156 75.8815 6.90764C76.0909 7.22024 76.0111 7.65387 75.702 7.86564C75.3928 8.0774 74.9639 7.99668 74.7544 7.68407C72.1114 3.74119 67.7129 1.38151 63.0052 1.38151C58.2975 1.38151 53.889 3.7513 51.236 7.71435C51.1063 7.90595 50.8869 8.01686 50.6675 8.01686Z" fill="#009DB9"/>
</svg>
